<mxfile host="app.diagrams.net" modified="2024-06-15T11:57:24.721Z" agent="Mozilla/5.0 (Windows NT 10.0; Win64; x64) AppleWebKit/537.36 (KHTML, like Gecko) Chrome/109.0.0.0 Safari/537.36 SLBrowser/9.0.3.5211 SLBChan/33" version="24.5.4" etag="HG9Hlhzj0KSNPzkHpDQa" type="github">
  <diagram name="第 1 页" id="GeD_dC9dmk427qHW6Qrp">
    <mxGraphModel>
      <root>
        <mxCell id="0" />
        <mxCell id="1" parent="0" />
      </root>
    </mxGraphModel>
  </diagram>
</mxfile>
